<svg width="283" height="735" viewBox="0 0 283 735" fill="none" xmlns="http://www.w3.org/2000/svg">
<g clip-path="url(#clip0_234_1599)">
<g clip-path="url(#clip1_234_1599)">
<path d="M-115.448 -57.7313L146.601 461.978C264.882 99.2284 -115.448 -57.7313 -115.448 -57.7313Z" fill="#F8C6C8" stroke="#F8C6C8" stroke-linecap="round" stroke-linejoin="round"/>
<path d="M405.073 983.557L145.757 464.811C146.055 463.847 146.303 462.942 146.601 461.978L405.073 983.557Z" stroke="#F8C6C8" stroke-linecap="round" stroke-linejoin="round"/>
<path d="M405.073 983.557C405.073 983.557 405.014 983.507 404.905 983.517C395.722 979.506 31.7865 821.05 145.757 464.81L405.073 983.557Z" fill="#F8C6C8" stroke="#F8C6C8" stroke-linecap="round" stroke-linejoin="round"/>
<path d="M404.905 983.517C395.445 982.507 42.0002 942.067 -136.021 585.96C-316.528 224.955 -115.448 -57.7313 -115.448 -57.7313L145.757 464.811C31.7865 821.05 395.722 979.506 404.905 983.517Z" fill="#E47174" stroke="#F8C6C8" stroke-linecap="round" stroke-linejoin="round"/>
</g>
</g>
<defs>
<clipPath id="clip0_234_1599">
<rect width="283" height="735" fill="white"/>
</clipPath>
<clipPath id="clip1_234_1599">
<rect width="1074.1" height="598.829" fill="white" transform="translate(-102.785 -79) rotate(39.7873)"/>
</clipPath>
</defs>
</svg>
