<svg width="774" height="870" viewBox="0 0 774 870" fill="none" xmlns="http://www.w3.org/2000/svg">
<g clip-path="url(#clip0_234_1600)">
<path d="M1024.32 844.231L646.685 331.096C703.107 -73.0786 282.485 -175.848 271.871 -178.457C281.962 -181.037 624.277 -262.969 927.076 148.507C1234.36 566.092 1024.32 844.231 1024.32 844.231Z" fill="#E47174" stroke="#F8C6C8" stroke-linecap="round" stroke-linejoin="round"/>
<path d="M646.612 331.053L271.682 -178.469C271.682 -178.469 271.755 -178.426 271.871 -178.457C282.485 -175.848 703.107 -73.0786 646.612 331.053Z" fill="#F8C6C8" stroke="#F8C6C8" stroke-linecap="round" stroke-linejoin="round"/>
<path d="M646.199 334.139L271.682 -178.469L646.612 331.053C646.512 332.072 646.413 333.09 646.199 334.139Z" stroke="#F8C6C8" stroke-linecap="round" stroke-linejoin="round"/>
<path d="M1024.25 844.189C1018.71 842.947 586.699 743.476 646.199 334.139L1024.25 844.189Z" fill="#F8C6C8" stroke="#F8C6C8" stroke-linecap="round" stroke-linejoin="round"/>
</g>
<defs>
<clipPath id="clip0_234_1600">
<rect width="1172.63" height="666.993" fill="white" transform="translate(333.496 -294) rotate(30)"/>
</clipPath>
</defs>
</svg>
