<svg width="491" height="47" viewBox="0 0 491 47" fill="none" xmlns="http://www.w3.org/2000/svg">
<path d="M27.5338 30.7988L18.1386 21.0184C18.2192 12.3438 9.04451 11.3316 8.81293 11.3057C9.01917 11.2237 16.0303 8.55737 23.5637 16.4002C31.2088 24.3595 27.5338 30.7988 27.5338 30.7988Z" fill="#E47174" stroke="white" stroke-linecap="round" stroke-linejoin="round"/>
<path d="M18.1372 21.0178L8.8091 11.3061C8.8091 11.3061 8.81077 11.3068 8.81313 11.3058C9.0447 11.3317 18.2194 12.3439 18.1372 21.0178Z" fill="white" stroke="white" stroke-linecap="round" stroke-linejoin="round"/>
<path d="M18.1369 21.084L8.80911 11.3062L18.1372 21.0178C18.1379 21.0395 18.1386 21.0613 18.1369 21.084Z" stroke="white" stroke-linecap="round" stroke-linejoin="round"/>
<path d="M27.5323 30.7982C27.4118 30.7872 18.0055 29.8758 18.1369 21.084L27.5323 30.7982Z" fill="white" stroke="white" stroke-linecap="round" stroke-linejoin="round"/>
<path d="M5.13538 16.7959L14.9747 26.0628C14.6936 17.2204 5.13538 16.7959 5.13538 16.7959Z" fill="white" stroke="white" stroke-linecap="round" stroke-linejoin="round"/>
<path d="M24.7508 35.3989L14.9788 26.1314C14.9777 26.108 14.976 26.0864 14.9749 26.063L24.7508 35.3989Z" stroke="white" stroke-linecap="round" stroke-linejoin="round"/>
<path d="M24.7508 35.399C24.7508 35.399 24.7491 35.3984 24.7467 35.3995C24.5142 35.3844 15.3027 34.798 14.9788 26.1315L24.7508 35.399Z" fill="white" stroke="white" stroke-linecap="round" stroke-linejoin="round"/>
<path d="M24.7466 35.3992C24.5317 35.4517 16.4827 37.3561 9.77434 30.9942C2.97291 24.5451 5.13544 16.7958 5.13544 16.7958L14.9787 26.1312C15.3026 34.7977 24.5141 35.3841 24.7466 35.3992Z" fill="#E47174" stroke="white" stroke-linecap="round" stroke-linejoin="round"/>
<path d="M53.953 11.6H49.468V7.7H62.728V11.6H58.243V35H53.953V11.6ZM66.33 7.7H72.141L76.587 35H72.297L71.517 29.579V29.657H66.642L65.862 35H61.884L66.33 7.7ZM71.01 25.952L69.099 12.458H69.021L67.149 25.952H71.01ZM78.6683 7.7H84.7913L87.5213 27.239H87.5993L90.3293 7.7H96.4523V35H92.3963V14.33H92.3183L89.1983 35H85.6103L82.4903 14.33H82.4123V35H78.6683V7.7ZM99.6537 7.7H105.972C108.104 7.7 109.703 8.272 110.769 9.416C111.835 10.56 112.368 12.237 112.368 14.447V17.138C112.368 19.348 111.835 21.025 110.769 22.169C109.703 23.313 108.104 23.885 105.972 23.885H103.944V35H99.6537V7.7ZM105.972 19.985C106.674 19.985 107.194 19.79 107.532 19.4C107.896 19.01 108.078 18.347 108.078 17.411V14.174C108.078 13.238 107.896 12.575 107.532 12.185C107.194 11.795 106.674 11.6 105.972 11.6H103.944V19.985H105.972ZM114.698 7.7H126.398V11.6H118.988V18.815H124.877V22.715H118.988V31.1H126.398V35H114.698V7.7ZM128.866 7.7H135.223C137.433 7.7 139.045 8.22 140.059 9.26C141.073 10.274 141.58 11.847 141.58 13.979V15.656C141.58 18.49 140.644 20.284 138.772 21.038V21.116C139.812 21.428 140.54 22.065 140.956 23.027C141.398 23.989 141.619 25.276 141.619 26.888V31.685C141.619 32.465 141.645 33.102 141.697 33.596C141.749 34.064 141.879 34.532 142.087 35H137.719C137.563 34.558 137.459 34.142 137.407 33.752C137.355 33.362 137.329 32.66 137.329 31.646V26.654C137.329 25.406 137.121 24.535 136.705 24.041C136.315 23.547 135.626 23.3 134.638 23.3H133.156V35H128.866V7.7ZM134.716 19.4C135.574 19.4 136.211 19.179 136.627 18.737C137.069 18.295 137.29 17.554 137.29 16.514V14.408C137.29 13.42 137.108 12.705 136.744 12.263C136.406 11.821 135.86 11.6 135.106 11.6H133.156V19.4H134.716ZM144.595 7.7H156.295V11.6H148.885V18.815H154.774V22.715H148.885V31.1H156.295V35H144.595V7.7ZM158.763 7.7H170.463V11.6H163.053V18.815H168.942V22.715H163.053V31.1H170.463V35H158.763V7.7ZM172.931 7.7H178.313L182.486 24.041H182.564V7.7H186.386V35H181.979L176.831 15.071H176.753V35H172.931V7.7ZM195.821 7.7H200.111V19.205L205.571 7.7H209.861L204.752 17.723L209.939 35H205.454L201.827 22.832L200.111 26.303V35H195.821V7.7ZM215.284 7.7H221.095L225.541 35H221.251L220.471 29.579V29.657H215.596L214.816 35H210.838L215.284 7.7ZM219.964 25.952L218.053 12.458H217.975L216.103 25.952H219.964ZM227.622 7.7H231.912V18.815H236.514V7.7H240.804V35H236.514V22.715H231.912V35H227.622V7.7ZM242.868 7.7H247.197L250.005 28.877H250.083L252.891 7.7H256.83L252.696 35H247.002L242.868 7.7ZM258.891 7.7H263.181V35H258.891V7.7ZM265.263 7.7H269.592L272.4 28.877H272.478L275.286 7.7H279.225L275.091 35H269.397L265.263 7.7ZM281.286 7.7H285.576V35H281.286V7.7ZM288.788 7.7H293.078V35H288.788V7.7ZM296.291 7.7H300.581V19.205L306.041 7.7H310.331L305.222 17.723L310.409 35H305.924L302.297 22.832L300.581 26.303V35H296.291V7.7ZM312.44 7.7H316.73V19.205L322.19 7.7H326.48L321.371 17.723L326.558 35H322.073L318.446 22.832L316.73 26.303V35H312.44V7.7ZM334.18 35.39C332.074 35.39 330.462 34.792 329.344 33.596C328.226 32.4 327.667 30.71 327.667 28.526V14.174C327.667 11.99 328.226 10.3 329.344 9.104C330.462 7.908 332.074 7.31 334.18 7.31C336.286 7.31 337.898 7.908 339.016 9.104C340.134 10.3 340.693 11.99 340.693 14.174V28.526C340.693 30.71 340.134 32.4 339.016 33.596C337.898 34.792 336.286 35.39 334.18 35.39ZM334.18 31.49C335.662 31.49 336.403 30.593 336.403 28.799V13.901C336.403 12.107 335.662 11.21 334.18 11.21C332.698 11.21 331.957 12.107 331.957 13.901V28.799C331.957 30.593 332.698 31.49 334.18 31.49Z" fill="white"/>
<path d="M373.291 22.3763L367.523 22.2605C364.938 19.6268 361.873 22.0822 361.796 22.1441C361.833 22.0573 363.14 19.1463 367.765 19.2393C372.459 19.3339 373.291 22.3763 373.291 22.3763Z" fill="white" stroke="white" stroke-linecap="round" stroke-linejoin="round"/>
<path d="M367.522 22.2607L361.795 22.1454C361.795 22.1454 361.796 22.1451 361.796 22.1441C361.873 22.0822 364.938 19.6268 367.522 22.2607Z" fill="white" stroke="white" stroke-linecap="round" stroke-linejoin="round"/>
<path d="M367.542 22.2808L361.795 22.1454L367.522 22.2608C367.529 22.2671 367.536 22.2734 367.542 22.2808Z" stroke="white" stroke-linecap="round" stroke-linejoin="round"/>
<path d="M373.29 22.3767C373.251 22.4096 370.147 24.965 367.542 22.2808L373.29 22.3767Z" fill="white" stroke="white" stroke-linecap="round" stroke-linejoin="round"/>
<path d="M362.341 25.9019L368.088 25.7297C365.344 23.1544 362.341 25.9019 362.341 25.9019Z" fill="white" stroke="white" stroke-linecap="round" stroke-linejoin="round"/>
<path d="M373.838 25.5974L368.11 25.7491C368.103 25.7424 368.096 25.7364 368.089 25.7297L373.838 25.5974Z" stroke="white" stroke-linecap="round" stroke-linejoin="round"/>
<path d="M373.838 25.5973C373.838 25.5973 373.837 25.5976 373.837 25.5986C373.762 25.664 370.815 28.2586 368.11 25.749L373.838 25.5973Z" fill="white" stroke="white" stroke-linecap="round" stroke-linejoin="round"/>
<path d="M373.836 25.5987C373.788 25.6791 371.939 28.6732 368.008 28.7775C364.022 28.8834 362.341 25.9019 362.341 25.9019L368.11 25.7491C370.815 28.2586 373.762 25.6641 373.836 25.5987Z" fill="white" stroke="white" stroke-linecap="round" stroke-linejoin="round"/>
<path d="M401.353 35.39C399.195 35.39 397.531 34.818 396.361 33.674C395.217 32.504 394.645 30.827 394.645 28.643V26.225C394.645 24.873 394.866 23.742 395.308 22.832C395.75 21.896 396.465 21.168 397.453 20.648V20.57C396.543 20.076 395.867 19.4 395.425 18.542C395.009 17.658 394.801 16.54 394.801 15.188V14.057C394.801 11.873 395.36 10.209 396.478 9.065C397.622 7.895 399.247 7.31 401.353 7.31C403.459 7.31 405.071 7.895 406.189 9.065C407.333 10.209 407.905 11.873 407.905 14.057V15.188C407.905 17.788 407.021 19.582 405.253 20.57V20.648C406.241 21.168 406.956 21.896 407.398 22.832C407.84 23.742 408.061 24.873 408.061 26.225V28.643C408.061 30.827 407.476 32.504 406.306 33.674C405.162 34.818 403.511 35.39 401.353 35.39ZM401.353 18.815C402.861 18.815 403.615 17.905 403.615 16.085V13.94C403.615 12.12 402.861 11.21 401.353 11.21C399.845 11.21 399.091 12.12 399.091 13.94V16.085C399.091 17.905 399.845 18.815 401.353 18.815ZM401.353 31.49C402.965 31.49 403.771 30.463 403.771 28.409V25.796C403.771 23.742 402.965 22.715 401.353 22.715C399.741 22.715 398.935 23.742 398.935 25.796V28.409C398.935 30.463 399.741 31.49 401.353 31.49ZM410.767 30.866H414.901V35H410.767V30.866ZM416.519 19.595H428.219V23.105H416.519V19.595ZM435.816 14.174H431.331V11.132C432.553 11.132 433.528 11.028 434.256 10.82C435.01 10.612 435.608 10.274 436.05 9.806C436.492 9.312 436.882 8.61 437.22 7.7H440.106V35H435.816V14.174ZM452.601 30.047H444.411V26.147L452.211 7.7H456.891V26.147H458.919V30.047H456.891V35H452.601V30.047ZM452.601 26.147V15.5H452.523L448.311 26.147H452.601ZM461.04 30.866H465.174V35H461.04V30.866ZM475.567 30.047H467.377V26.147L475.177 7.7H479.857V26.147H481.885V30.047H479.857V35H475.567V30.047ZM475.567 26.147V15.5H475.489L471.277 26.147H475.567ZM484.006 30.866H488.14V35H484.006V30.866Z" fill="white"/>
</svg>
