<svg width="64" height="65" viewBox="0 0 64 65" fill="none" xmlns="http://www.w3.org/2000/svg">
<rect y="0.727539" width="64" height="64" rx="32" fill="#0E0B0C"/>
<path fill-rule="evenodd" clip-rule="evenodd" d="M41.2 32.7275C41.2 37.8275 37.1 41.9275 32 41.9275C26.9 41.9275 22.8 37.8275 22.8 32.7275C22.8 31.9275 22.9 31.1275 23.1 30.4275H20.5V43.1275C20.5 43.7275 21 44.3275 21.7 44.3275H42.5C43.1 44.3275 43.7 43.8275 43.7 43.1275V30.4275H41.1C41.1 31.1275 41.2 31.9275 41.2 32.7275ZM32 38.5275C35.2 38.5275 37.8 35.9275 37.8 32.7275C37.8 29.5275 35.2 26.9275 32 26.9275C28.8 26.9275 26.2 29.5275 26.2 32.7275C26.2 35.9275 28.8 38.5275 32 38.5275ZM42.4 21.2275H38.9C38.3 21.2275 37.7 21.7275 37.7 22.4275V25.9275C37.7 26.5275 38.2 27.1275 38.9 27.1275H42.4C43 27.1275 43.6 26.6275 43.6 25.9275V22.4275C43.5 21.7275 43 21.2275 42.4 21.2275ZM47 44.2275C47 46.1275 45.5 47.7275 43.5 47.7275H20.5C18.6 47.7275 17 46.1275 17 44.2275V21.2275C17 19.3275 18.5 17.7275 20.5 17.7275H43.6C45.5 17.7275 47.1 19.2275 47.1 21.2275V44.2275H47Z" fill="white"/>
</svg>
