<svg width="27" height="28" viewBox="0 0 27 28" fill="none" xmlns="http://www.w3.org/2000/svg">
<path fill-rule="evenodd" clip-rule="evenodd" d="M25.5 0.842285H12C11.1716 0.842285 10.5 1.51386 10.5 2.34229C10.5 3.17071 11.1716 3.84229 12 3.84229H21.8787L9.8383 15.8827L11.9596 18.004L24 5.96361V15.8423C24 16.6707 24.6716 17.3423 25.5 17.3423C26.3284 17.3423 27 16.6707 27 15.8423V2.34229C27 1.51386 26.3284 0.842285 25.5 0.842285ZM5.79053 5.71174H16.4283L13.4122 8.72786H6.79053C5.13367 8.72786 3.79053 10.071 3.79053 11.7279V21.7279C3.79053 23.3847 5.13367 24.7279 6.79053 24.7279H16.7905C18.4474 24.7279 19.7905 23.3847 19.7905 21.7279V14.2658L22.6921 11.3642V22.6133C22.6921 25.3748 20.4535 27.6133 17.6921 27.6133H5.79052C3.0291 27.6133 0.790527 25.3747 0.790527 22.6133V10.7117C0.790527 7.95031 3.0291 5.71174 5.79053 5.71174Z" fill="#E47174"/>
</svg>
