<?xml version="1.0" encoding="UTF-8"?><svg id="uuid-423a8810-f455-4ff8-9c5b-e3a261e5e633" xmlns="http://www.w3.org/2000/svg" xmlns:xlink="http://www.w3.org/1999/xlink" viewBox="0 0 825.09 161.39"><defs><style>.uuid-e5aa88f0-3b7b-41a6-a850-7cf0f9618eee,.uuid-a8c16122-414c-46a2-8206-57c053345500,.uuid-446e2a81-9e1a-4b3b-9f7c-2123dae5b431{fill:none;}.uuid-e5aa88f0-3b7b-41a6-a850-7cf0f9618eee,.uuid-d18ce798-d529-4f2f-9fb3-3b289f1cae43{stroke-width:0px;}.uuid-a8c16122-414c-46a2-8206-57c053345500{stroke:#fff;}.uuid-446e2a81-9e1a-4b3b-9f7c-2123dae5b431,.uuid-e10fd927-ce29-4bd8-9121-c9bc2cb23259,.uuid-66cd4299-13a8-48fa-ad41-b2da51e61ff9{stroke:#f8c6c8;stroke-linecap:round;stroke-linejoin:round;}.uuid-d18ce798-d529-4f2f-9fb3-3b289f1cae43,.uuid-66cd4299-13a8-48fa-ad41-b2da51e61ff9{fill:#e47174;}.uuid-6bfacddd-f287-4012-bb01-727481344cf9{clip-path:url(#uuid-0021ca81-3a61-41bf-b74f-1bb64a3d516c);}.uuid-8fd45463-37fd-432d-9229-1aff4ad1d2c6{clip-path:url(#uuid-716293f0-7ec5-47e6-ba33-99d6acdcd459);}.uuid-e10fd927-ce29-4bd8-9121-c9bc2cb23259{fill:#f8c6c8;}</style><clipPath id="uuid-716293f0-7ec5-47e6-ba33-99d6acdcd459"><rect class="uuid-e5aa88f0-3b7b-41a6-a850-7cf0f9618eee" x="708.65" y="-13.42" width="78.79" height="138.52" transform="translate(502.25 764.55) rotate(-75.14)"/></clipPath><clipPath id="uuid-0021ca81-3a61-41bf-b74f-1bb64a3d516c"><rect class="uuid-e5aa88f0-3b7b-41a6-a850-7cf0f9618eee" x="36.33" y="19.96" width="77.16" height="138.4" transform="translate(-26.04 147.2) rotate(-79.86)"/></clipPath></defs><path class="uuid-d18ce798-d529-4f2f-9fb3-3b289f1cae43" d="M86.18,46.2h-10.12v-8.8h29.92v8.8h-10.12v52.8h-9.68v-52.8ZM114.1,37.4h13.11l10.03,61.6h-9.68l-1.76-12.23v.18h-11l-1.76,12.06h-8.98l10.03-61.6ZM124.66,78.58l-4.31-30.45h-.18l-4.22,30.45h8.71ZM141.94,37.4h13.82l6.16,44.09h.18l6.16-44.09h13.82v61.6h-9.15v-46.64h-.18l-7.04,46.64h-8.1l-7.04-46.64h-.18v46.64h-8.45v-61.6ZM189.3,37.4h14.26c4.81,0,8.42,1.29,10.82,3.87,2.4,2.58,3.61,6.37,3.61,11.35v6.07c0,4.99-1.2,8.77-3.61,11.35-2.41,2.58-6.01,3.87-10.82,3.87h-4.58v25.08h-9.68v-61.6ZM203.55,65.12c1.58,0,2.76-.44,3.52-1.32.82-.88,1.23-2.38,1.23-4.49v-7.3c0-2.11-.41-3.61-1.23-4.49-.76-.88-1.94-1.32-3.52-1.32h-4.58v18.92h4.58ZM223.24,37.4h26.4v8.8h-16.72v16.28h13.29v8.8h-13.29v18.92h16.72v8.8h-26.4v-61.6ZM255.21,37.4h14.34c4.99,0,8.62,1.17,10.91,3.52,2.29,2.29,3.43,5.84,3.43,10.65v3.78c0,6.39-2.11,10.44-6.34,12.14v.18c2.35.7,3.99,2.14,4.93,4.31,1,2.17,1.5,5.07,1.5,8.71v10.82c0,1.76.06,3.2.18,4.31.12,1.06.41,2.11.88,3.17h-9.86c-.35-1-.59-1.94-.7-2.82-.12-.88-.18-2.46-.18-4.75v-11.26c0-2.82-.47-4.78-1.41-5.9-.88-1.11-2.43-1.67-4.66-1.67h-3.34v26.4h-9.68v-61.6ZM268.41,63.8c1.94,0,3.37-.5,4.31-1.5,1-1,1.5-2.67,1.5-5.02v-4.75c0-2.23-.41-3.84-1.23-4.84-.76-1-1.99-1.5-3.7-1.5h-4.4v17.6h3.52ZM290.7,37.4h26.4v8.8h-16.72v16.28h13.29v8.8h-13.29v18.92h16.72v8.8h-26.4v-61.6ZM322.67,37.4h26.4v8.8h-16.72v16.28h13.29v8.8h-13.29v18.92h16.72v8.8h-26.4v-61.6ZM354.64,37.4h12.14l9.42,36.87h.18v-36.87h8.62v61.6h-9.94l-11.62-44.97h-.18v44.97h-8.62v-61.6ZM406.29,37.4h9.68v25.96l12.32-25.96h9.68l-11.53,22.62,11.7,38.98h-10.12l-8.18-27.46-3.87,7.83v19.62h-9.68v-61.6ZM450.21,37.4h13.11l10.03,61.6h-9.68l-1.76-12.23v.18h-11l-1.76,12.06h-8.98l10.03-61.6ZM460.77,78.58l-4.31-30.45h-.18l-4.22,30.45h8.71ZM478.05,37.4h9.68v25.08h10.38v-25.08h9.68v61.6h-9.68v-27.72h-10.38v27.72h-9.68v-61.6ZM512.45,37.4h9.77l6.34,47.78h.18l6.34-47.78h8.89l-9.33,61.6h-12.85l-9.33-61.6ZM548.6,37.4h9.68v61.6h-9.68v-61.6ZM562.98,37.4h9.77l6.34,47.78h.18l6.34-47.78h8.89l-9.33,61.6h-12.85l-9.33-61.6ZM599.13,37.4h9.68v61.6h-9.68v-61.6ZM616.06,37.4h9.68v61.6h-9.68v-61.6ZM632.99,37.4h9.68v25.96l12.32-25.96h9.68l-11.53,22.62,11.7,38.98h-10.12l-8.18-27.46-3.87,7.83v19.62h-9.68v-61.6ZM669.43,37.4h9.68v25.96l12.32-25.96h9.68l-11.53,22.62,11.7,38.98h-10.12l-8.18-27.46-3.87,7.83v19.62h-9.68v-61.6ZM718.48,99.88c-4.75,0-8.39-1.35-10.91-4.05-2.52-2.7-3.78-6.51-3.78-11.44v-32.38c0-4.93,1.26-8.74,3.78-11.44,2.52-2.7,6.16-4.05,10.91-4.05s8.39,1.35,10.91,4.05c2.52,2.7,3.78,6.51,3.78,11.44v32.38c0,4.93-1.26,8.74-3.78,11.44-2.52,2.7-6.16,4.05-10.91,4.05ZM718.48,91.08c3.34,0,5.02-2.02,5.02-6.07v-33.62c0-4.05-1.67-6.07-5.02-6.07s-5.02,2.02-5.02,6.07v33.62c0,4.05,1.67,6.07,5.02,6.07Z"/><line class="uuid-a8c16122-414c-46a2-8206-57c053345500" x1="232" y1="120.5" x2="600" y2="120.5"/><path class="uuid-d18ce798-d529-4f2f-9fb3-3b289f1cae43" d="M283.95,137.6h-4.49v-3.9h13.26v3.9h-4.48v23.4h-4.29v-23.4ZM296.33,133.7h5.81l4.45,27.3h-4.29l-.78-5.42v.08h-4.88l-.78,5.34h-3.98l4.45-27.3ZM301.01,151.95l-1.91-13.49h-.08l-1.87,13.49h3.86ZM308.67,133.7h6.12l2.73,19.54h.08l2.73-19.54h6.12v27.3h-4.06v-20.67h-.08l-3.12,20.67h-3.59l-3.12-20.67h-.08v20.67h-3.74v-27.3ZM329.65,133.7h6.32c2.13,0,3.73.57,4.8,1.72,1.07,1.14,1.6,2.82,1.6,5.03v2.69c0,2.21-.53,3.89-1.6,5.03-1.07,1.14-2.67,1.72-4.8,1.72h-2.03v11.12h-4.29v-27.3ZM335.97,145.99c.7,0,1.22-.2,1.56-.59.36-.39.55-1.05.55-1.99v-3.24c0-.94-.18-1.6-.55-1.99-.34-.39-.86-.58-1.56-.58h-2.03v8.38h2.03ZM344.7,133.7h11.7v3.9h-7.41v7.21h5.89v3.9h-5.89v8.39h7.41v3.9h-11.7v-27.3ZM358.87,133.7h6.36c2.21,0,3.82.52,4.84,1.56,1.01,1.01,1.52,2.59,1.52,4.72v1.68c0,2.83-.94,4.63-2.81,5.38v.08c1.04.31,1.77.95,2.18,1.91.44.96.66,2.25.66,3.86v4.8c0,.78.03,1.42.08,1.91.05.47.18.94.39,1.4h-4.37c-.16-.44-.26-.86-.31-1.25s-.08-1.09-.08-2.11v-4.99c0-1.25-.21-2.12-.62-2.61-.39-.49-1.08-.74-2.07-.74h-1.48v11.7h-4.29v-27.3ZM364.72,145.4c.86,0,1.49-.22,1.91-.66.44-.44.66-1.18.66-2.22v-2.11c0-.99-.18-1.7-.55-2.15-.34-.44-.88-.66-1.64-.66h-1.95v7.8h1.56ZM374.6,133.7h11.7v3.9h-7.41v7.21h5.89v3.9h-5.89v8.39h7.41v3.9h-11.7v-27.3ZM388.76,133.7h11.7v3.9h-7.41v7.21h5.89v3.9h-5.89v8.39h7.41v3.9h-11.7v-27.3ZM402.93,133.7h4.29v23.4h7.06v3.9h-11.35v-27.3ZM416.34,133.7h4.29v23.4h7.06v3.9h-11.35v-27.3ZM433.21,133.7h5.81l4.45,27.3h-4.29l-.78-5.42v.08h-4.88l-.78,5.34h-3.98l4.45-27.3ZM437.89,151.95l-1.91-13.49h-.08l-1.87,13.49h3.86ZM458,161.39c-2.16,0-3.82-.57-4.99-1.72-1.14-1.17-1.72-2.85-1.72-5.03v-2.42c0-1.35.22-2.48.66-3.39.44-.94,1.16-1.66,2.15-2.18v-.08c-.91-.49-1.59-1.17-2.03-2.03-.42-.88-.62-2-.62-3.35v-1.13c0-2.18.56-3.85,1.68-4.99,1.14-1.17,2.77-1.76,4.88-1.76s3.72.59,4.84,1.76c1.14,1.14,1.72,2.81,1.72,4.99v1.13c0,2.6-.88,4.39-2.65,5.38v.08c.99.52,1.7,1.25,2.14,2.18.44.91.66,2.04.66,3.39v2.42c0,2.18-.59,3.86-1.76,5.03-1.14,1.14-2.8,1.72-4.95,1.72ZM458,144.82c1.51,0,2.26-.91,2.26-2.73v-2.15c0-1.82-.75-2.73-2.26-2.73s-2.26.91-2.26,2.73v2.15c0,1.82.75,2.73,2.26,2.73ZM458,157.49c1.61,0,2.42-1.03,2.42-3.08v-2.61c0-2.05-.81-3.08-2.42-3.08s-2.42,1.03-2.42,3.08v2.61c0,2.05.81,3.08,2.42,3.08ZM467.41,156.87h4.13v4.13h-4.13v-4.13ZM473.16,145.6h11.7v3.51h-11.7v-3.51ZM492.46,140.17h-4.49v-3.04c1.22,0,2.2-.1,2.92-.31.75-.21,1.35-.55,1.79-1.01.44-.49.83-1.2,1.17-2.11h2.89v27.3h-4.29v-20.83ZM509.25,156.05h-8.19v-3.9l7.8-18.45h4.68v18.45h2.03v3.9h-2.03v4.95h-4.29v-4.95ZM509.25,152.15v-10.65h-.08l-4.21,10.65h4.29ZM517.68,156.87h4.13v4.13h-4.13v-4.13ZM532.21,156.05h-8.19v-3.9l7.8-18.45h4.68v18.45h2.03v3.9h-2.03v4.95h-4.29v-4.95ZM532.21,152.15v-10.65h-.08l-4.21,10.65h4.29ZM540.65,156.87h4.13v4.13h-4.13v-4.13Z"/><g class="uuid-8fd45463-37fd-432d-9229-1aff4ad1d2c6"><path class="uuid-66cd4299-13a8-48fa-ad41-b2da51e61ff9" d="M805.1,108.47l-58.89-46.86c-6.04-47.83-57.17-46.57-58.46-46.54,1.07-.61,37.58-20.51,84.8,17.07,47.92,38.13,32.55,76.33,32.55,76.33Z"/><path class="uuid-e10fd927-ce29-4bd8-9121-c9bc2cb23259" d="M746.19,61.61l-58.47-46.53s.01,0,.02,0c1.29-.03,52.42-1.29,58.45,46.54Z"/><path class="uuid-446e2a81-9e1a-4b3b-9f7c-2123dae5b431" d="M746.24,61.98l-58.52-46.9,58.47,46.53c.02.12.04.24.05.36Z"/><path class="uuid-e10fd927-ce29-4bd8-9121-c9bc2cb23259" d="M805.09,108.47c-.67.03-53,2.02-58.84-46.49l58.84,46.49Z"/></g><g class="uuid-6bfacddd-f287-4012-bb01-727481344cf9"><path class="uuid-e10fd927-ce29-4bd8-9121-c9bc2cb23259" d="M13.52,42.19l62.47,41.5C66.12,35.52,13.52,42.19,13.52,42.19Z"/><path class="uuid-446e2a81-9e1a-4b3b-9f7c-2123dae5b431" d="M138.18,125.62l-62.1-41.56c-.03-.13-.06-.24-.09-.37l62.19,41.93Z"/><path class="uuid-e10fd927-ce29-4bd8-9121-c9bc2cb23259" d="M138.18,125.62s0,0-.02,0c-1.28.14-52.14,5.59-62.08-41.57l62.1,41.56Z"/><path class="uuid-66cd4299-13a8-48fa-ad41-b2da51e61ff9" d="M138.16,125.62c-1.12.49-43.28,18.49-85.91-10.04C9.02,86.66,13.52,42.19,13.52,42.19l62.56,41.87c9.94,47.16,60.8,41.7,62.08,41.57Z"/></g></svg>